M48
;DRILL file {KiCad (5.0.0-rc2-dev-444-g2974a2c10)} date 06/05/19 22:24:45
;FORMAT={-:-/ absolute / inch / decimal}
FMAT,2
INCH,TZ
T1C0.0130
T2C0.0200
T3C0.0295
T4C0.0300
T5C0.0354
T6C0.0394
T7C0.0400
T8C0.0709
T9C0.1299
T10C0.1260
%
G90
G05
M72
T1
X3.8902Y-1.6807
X3.8902Y-3.6807
X3.8902Y-5.7307
X4.4114Y-3.4587
X4.687Y-3.5571
X5.1852Y-5.3857
X5.3302Y-2.5407
X5.6902Y-4.3507
X5.748Y-4.5857
X5.8452Y-2.4807
X6.2152Y-2.7757
X6.7902Y-1.6807
X6.7902Y-3.6807
X6.7902Y-5.7307
T2
X4.0952Y-3.2789
X4.292Y-3.2789
X4.4702Y-3.6807
X4.6102Y-3.4007
X4.9652Y-4.0007
X4.9802Y-3.7936
X5.0052Y-3.5557
X5.2102Y-3.9957
X5.4823Y-3.7933
X5.6802Y-3.6107
X5.8602Y-4.9075
X5.8802Y-4.5857
X5.9052Y-3.6107
X6.1102Y-4.5857
X6.112Y-5.2175
X6.2302Y-3.6107
X6.3102Y-3.2807
T3
X4.0202Y-2.2495
X4.0202Y-2.3282
X4.0202Y-2.407
X4.0202Y-2.4857
T4
X4.6302Y-2.1007
X4.6302Y-2.2007
X4.6302Y-2.3007
X4.6302Y-2.4046
X4.6302Y-2.5007
X4.6302Y-2.6007
X4.6302Y-2.7007
X4.7302Y-2.1007
X4.7302Y-2.7007
X4.8302Y-2.1007
X4.8302Y-2.7007
X4.9302Y-2.1007
X4.9302Y-2.7007
X5.0302Y-2.1007
X5.0302Y-2.7007
X5.1302Y-2.1007
X5.1302Y-2.7007
X5.2302Y-2.1007
X5.2302Y-2.7007
X5.3302Y-2.1007
X5.3302Y-2.7007
X5.4302Y-2.1007
X5.4302Y-2.7007
X5.5302Y-2.1007
X5.5302Y-2.7007
X5.6302Y-2.1007
X5.6302Y-2.7007
X5.7302Y-2.1007
X5.7302Y-2.7007
X5.8302Y-2.1007
X5.8302Y-2.7007
X5.9302Y-2.1007
X5.9302Y-2.7007
T5
X4.7702Y-3.2857
X4.7702Y-3.3857
X4.7702Y-3.4857
X5.2902Y-5.6807
X5.3902Y-5.6807
X4.0052Y-3.8507
X4.1052Y-3.8507
X6.5552Y-3.8507
X6.6552Y-3.8507
T6
X4.9902Y-1.8707
X5.0902Y-1.8707
X5.1902Y-1.8707
X5.2902Y-1.8707
X5.3902Y-1.8707
X5.4902Y-1.8707
X5.5902Y-1.8707
X5.6902Y-1.8707
X5.0399Y-3.2179
X5.0399Y-3.3163
X5.0399Y-3.4147
X5.6107Y-3.2179
X5.6107Y-3.4147
T7
X4.5902Y-4.8207
X4.5902Y-4.9207
X4.5902Y-5.0207
X4.5902Y-5.1207
X4.5902Y-5.2207
X4.5902Y-5.3207
X4.5902Y-5.4207
X4.5902Y-5.5207
X4.6902Y-4.8207
X4.6902Y-4.9207
X4.6902Y-5.0207
X4.6902Y-5.1207
X4.6902Y-5.2207
X4.6902Y-5.3207
X4.6902Y-5.4207
X4.6902Y-5.5207
T9
X4.7702Y-1.8707
X4.7702Y-3.0307
X5.9102Y-1.8707
X5.9102Y-3.0307
T10
X4.0354Y-1.2992
X6.6339Y-1.2992
X6.6339Y-6.122
X4.0354Y-6.122
T6
X6.4606Y-4.122G85X6.4606Y-4.2402
G05
X6.5905Y-4.0906G85X6.7086Y-4.0906
G05
X6.5905Y-4.4094G85X6.7086Y-4.4094
G05
X6.4606Y-5.3248G85X6.4606Y-5.4429
G05
X6.5905Y-5.2933G85X6.7086Y-5.2933
G05
X6.5905Y-5.6122G85X6.7086Y-5.6122
G05
X6.4606Y-4.7224G85X6.4606Y-4.8406
G05
X6.5905Y-4.6909G85X6.7086Y-4.6909
G05
X6.5905Y-5.0098G85X6.7086Y-5.0098
G05
X5.8256Y-4.122G85X5.8256Y-4.2402
G05
X5.9555Y-4.0906G85X6.0736Y-4.0906
G05
X5.9555Y-4.4094G85X6.0736Y-4.4094
G05
X5.1906Y-4.1215G85X5.1906Y-4.2396
G05
X5.3205Y-4.09G85X5.4386Y-4.09
G05
X5.3205Y-4.4089G85X5.4386Y-4.4089
G05
X3.9106Y-4.122G85X3.9106Y-4.2402
G05
X4.0405Y-4.0906G85X4.1586Y-4.0906
G05
X4.0405Y-4.4094G85X4.1586Y-4.4094
G05
X4.5506Y-4.1215G85X4.5506Y-4.2396
G05
X4.6805Y-4.09G85X4.7986Y-4.09
G05
X4.6805Y-4.4089G85X4.7986Y-4.4089
G05
X3.9106Y-4.7224G85X3.9106Y-4.8406
G05
X4.0405Y-4.6909G85X4.1586Y-4.6909
G05
X4.0405Y-5.0098G85X4.1586Y-5.0098
G05
X3.9106Y-5.3269G85X3.9106Y-5.445
G05
X4.0405Y-5.2954G85X4.1586Y-5.2954
G05
X4.0405Y-5.6143G85X4.1586Y-5.6143
G05
T8
X5.3194Y-3.0919G85X5.3509Y-3.0919
G05
X5.3194Y-3.5407G85X5.3509Y-3.5407
G05
T0
M30
