G04 #@! TF.GenerationSoftware,KiCad,Pcbnew,(5.0.0-rc2-dev-444-g2974a2c10)*
G04 #@! TF.CreationDate,2019-06-05T22:24:42-07:00*
G04 #@! TF.ProjectId,2019-04-06_Range_Slicer_PCB,323031392D30342D30365F52616E6765,v02*
G04 #@! TF.SameCoordinates,Original*
G04 #@! TF.FileFunction,Soldermask,Bot*
G04 #@! TF.FilePolarity,Negative*
%FSLAX46Y46*%
G04 Gerber Fmt 4.6, Leading zero omitted, Abs format (unit mm)*
G04 Created by KiCad (PCBNEW (5.0.0-rc2-dev-444-g2974a2c10)) date 06/05/19 22:24:42*
%MOMM*%
%LPD*%
G01*
G04 APERTURE LIST*
%ADD10C,0.150000*%
%ADD11C,0.078740*%
%ADD12C,2.101600*%
%ADD13R,1.901600X1.901600*%
%ADD14C,1.901600*%
%ADD15R,3.701600X2.901600*%
%ADD16R,1.828800X1.828800*%
%ADD17O,1.828800X1.828800*%
%ADD18C,1.625600*%
%ADD19R,1.701600X1.301600*%
%ADD20R,1.801600X1.301600*%
%ADD21O,1.801600X1.301600*%
%ADD22C,1.721600*%
%ADD23R,1.721600X1.721600*%
%ADD24C,3.701600*%
%ADD25C,3.301600*%
G04 APERTURE END LIST*
D10*
G36*
X155956000Y-45430000D02*
X155956000Y-47230000D01*
X157966000Y-47250000D01*
X157966000Y-45450000D01*
X155956000Y-45430000D01*
G37*
X155956000Y-45430000D02*
X155956000Y-47230000D01*
X157966000Y-47250000D01*
X157966000Y-45450000D01*
X155956000Y-45430000D01*
G36*
X158376000Y-45250000D02*
X157487000Y-46139000D01*
X158249000Y-45885000D01*
X157360000Y-46774000D01*
X158249000Y-46520000D01*
X157360000Y-47536000D01*
X158249000Y-47282000D01*
X158249000Y-48552000D01*
X158503000Y-48552000D01*
X158503000Y-47282000D01*
X159392000Y-47536000D01*
X158503000Y-46520000D01*
X159392000Y-46774000D01*
X158503000Y-45885000D01*
X159265000Y-46139000D01*
X158376000Y-45250000D01*
G37*
X158376000Y-45250000D02*
X157487000Y-46139000D01*
X158249000Y-45885000D01*
X157360000Y-46774000D01*
X158249000Y-46520000D01*
X157360000Y-47536000D01*
X158249000Y-47282000D01*
X158249000Y-48552000D01*
X158503000Y-48552000D01*
X158503000Y-47282000D01*
X159392000Y-47536000D01*
X158503000Y-46520000D01*
X159392000Y-46774000D01*
X158503000Y-45885000D01*
X159265000Y-46139000D01*
X158376000Y-45250000D01*
G36*
X156979000Y-44488000D02*
X156090000Y-45377000D01*
X156852000Y-45123000D01*
X155963000Y-46012000D01*
X156852000Y-45758000D01*
X155963000Y-46774000D01*
X156852000Y-46520000D01*
X156852000Y-47790000D01*
X157106000Y-47790000D01*
X157106000Y-46520000D01*
X157995000Y-46774000D01*
X157106000Y-45758000D01*
X157995000Y-46012000D01*
X157106000Y-45123000D01*
X157868000Y-45377000D01*
X156979000Y-44488000D01*
G37*
X156979000Y-44488000D02*
X156090000Y-45377000D01*
X156852000Y-45123000D01*
X155963000Y-46012000D01*
X156852000Y-45758000D01*
X155963000Y-46774000D01*
X156852000Y-46520000D01*
X156852000Y-47790000D01*
X157106000Y-47790000D01*
X157106000Y-46520000D01*
X157995000Y-46774000D01*
X157106000Y-45758000D01*
X157995000Y-46012000D01*
X157106000Y-45123000D01*
X157868000Y-45377000D01*
X156979000Y-44488000D01*
G36*
X155582000Y-45250000D02*
X154693000Y-46139000D01*
X155455000Y-45885000D01*
X154566000Y-46774000D01*
X155455000Y-46520000D01*
X154566000Y-47536000D01*
X155455000Y-47282000D01*
X155455000Y-48552000D01*
X155709000Y-48552000D01*
X155709000Y-47282000D01*
X156598000Y-47536000D01*
X155709000Y-46520000D01*
X156598000Y-46774000D01*
X155709000Y-45885000D01*
X156471000Y-46139000D01*
X155582000Y-45250000D01*
G37*
X155582000Y-45250000D02*
X154693000Y-46139000D01*
X155455000Y-45885000D01*
X154566000Y-46774000D01*
X155455000Y-46520000D01*
X154566000Y-47536000D01*
X155455000Y-47282000D01*
X155455000Y-48552000D01*
X155709000Y-48552000D01*
X155709000Y-47282000D01*
X156598000Y-47536000D01*
X155709000Y-46520000D01*
X156598000Y-46774000D01*
X155709000Y-45885000D01*
X156471000Y-46139000D01*
X155582000Y-45250000D01*
D11*
G36*
X122460898Y-102838730D02*
X122511900Y-102846295D01*
X122561916Y-102858824D01*
X122610462Y-102876194D01*
X122657072Y-102898239D01*
X122701297Y-102924746D01*
X122742710Y-102955460D01*
X122780914Y-102990086D01*
X122815540Y-103028290D01*
X122846254Y-103069703D01*
X122872761Y-103113928D01*
X122894806Y-103160538D01*
X122912176Y-103209084D01*
X122924705Y-103259100D01*
X122932270Y-103310102D01*
X122934800Y-103361600D01*
X122934800Y-104412400D01*
X122932270Y-104463898D01*
X122924705Y-104514900D01*
X122912176Y-104564916D01*
X122894806Y-104613462D01*
X122872761Y-104660072D01*
X122846254Y-104704297D01*
X122815540Y-104745710D01*
X122780914Y-104783914D01*
X122742710Y-104818540D01*
X122701297Y-104849254D01*
X122657072Y-104875761D01*
X122610462Y-104897806D01*
X122561916Y-104915176D01*
X122511900Y-104927705D01*
X122460898Y-104935270D01*
X122409400Y-104937800D01*
X118358600Y-104937800D01*
X118307102Y-104935270D01*
X118256100Y-104927705D01*
X118206084Y-104915176D01*
X118157538Y-104897806D01*
X118110928Y-104875761D01*
X118066703Y-104849254D01*
X118025290Y-104818540D01*
X117987086Y-104783914D01*
X117952460Y-104745710D01*
X117921746Y-104704297D01*
X117895239Y-104660072D01*
X117873194Y-104613462D01*
X117855824Y-104564916D01*
X117843295Y-104514900D01*
X117835730Y-104463898D01*
X117833200Y-104412400D01*
X117833200Y-103361600D01*
X117835730Y-103310102D01*
X117843295Y-103259100D01*
X117855824Y-103209084D01*
X117873194Y-103160538D01*
X117895239Y-103113928D01*
X117921746Y-103069703D01*
X117952460Y-103028290D01*
X117987086Y-102990086D01*
X118025290Y-102955460D01*
X118066703Y-102924746D01*
X118110928Y-102898239D01*
X118157538Y-102876194D01*
X118206084Y-102858824D01*
X118256100Y-102846295D01*
X118307102Y-102838730D01*
X118358600Y-102836200D01*
X122409400Y-102836200D01*
X122460898Y-102838730D01*
X122460898Y-102838730D01*
G37*
D12*
X120384000Y-103887000D03*
D11*
G36*
X116160898Y-103638730D02*
X116211900Y-103646295D01*
X116261916Y-103658824D01*
X116310462Y-103676194D01*
X116357072Y-103698239D01*
X116401297Y-103724746D01*
X116442710Y-103755460D01*
X116480914Y-103790086D01*
X116515540Y-103828290D01*
X116546254Y-103869703D01*
X116572761Y-103913928D01*
X116594806Y-103960538D01*
X116612176Y-104009084D01*
X116624705Y-104059100D01*
X116632270Y-104110102D01*
X116634800Y-104161600D01*
X116634800Y-108212400D01*
X116632270Y-108263898D01*
X116624705Y-108314900D01*
X116612176Y-108364916D01*
X116594806Y-108413462D01*
X116572761Y-108460072D01*
X116546254Y-108504297D01*
X116515540Y-108545710D01*
X116480914Y-108583914D01*
X116442710Y-108618540D01*
X116401297Y-108649254D01*
X116357072Y-108675761D01*
X116310462Y-108697806D01*
X116261916Y-108715176D01*
X116211900Y-108727705D01*
X116160898Y-108735270D01*
X116109400Y-108737800D01*
X115058600Y-108737800D01*
X115007102Y-108735270D01*
X114956100Y-108727705D01*
X114906084Y-108715176D01*
X114857538Y-108697806D01*
X114810928Y-108675761D01*
X114766703Y-108649254D01*
X114725290Y-108618540D01*
X114687086Y-108583914D01*
X114652460Y-108545710D01*
X114621746Y-108504297D01*
X114595239Y-108460072D01*
X114573194Y-108413462D01*
X114555824Y-108364916D01*
X114543295Y-108314900D01*
X114535730Y-108263898D01*
X114533200Y-108212400D01*
X114533200Y-104161600D01*
X114535730Y-104110102D01*
X114543295Y-104059100D01*
X114555824Y-104009084D01*
X114573194Y-103960538D01*
X114595239Y-103913928D01*
X114621746Y-103869703D01*
X114652460Y-103828290D01*
X114687086Y-103790086D01*
X114725290Y-103755460D01*
X114766703Y-103724746D01*
X114810928Y-103698239D01*
X114857538Y-103676194D01*
X114906084Y-103658824D01*
X114956100Y-103646295D01*
X115007102Y-103638730D01*
X115058600Y-103636200D01*
X116109400Y-103636200D01*
X116160898Y-103638730D01*
X116160898Y-103638730D01*
G37*
D12*
X115584000Y-106187000D03*
D11*
G36*
X122460898Y-110938730D02*
X122511900Y-110946295D01*
X122561916Y-110958824D01*
X122610462Y-110976194D01*
X122657072Y-110998239D01*
X122701297Y-111024746D01*
X122742710Y-111055460D01*
X122780914Y-111090086D01*
X122815540Y-111128290D01*
X122846254Y-111169703D01*
X122872761Y-111213928D01*
X122894806Y-111260538D01*
X122912176Y-111309084D01*
X122924705Y-111359100D01*
X122932270Y-111410102D01*
X122934800Y-111461600D01*
X122934800Y-112512400D01*
X122932270Y-112563898D01*
X122924705Y-112614900D01*
X122912176Y-112664916D01*
X122894806Y-112713462D01*
X122872761Y-112760072D01*
X122846254Y-112804297D01*
X122815540Y-112845710D01*
X122780914Y-112883914D01*
X122742710Y-112918540D01*
X122701297Y-112949254D01*
X122657072Y-112975761D01*
X122610462Y-112997806D01*
X122561916Y-113015176D01*
X122511900Y-113027705D01*
X122460898Y-113035270D01*
X122409400Y-113037800D01*
X118358600Y-113037800D01*
X118307102Y-113035270D01*
X118256100Y-113027705D01*
X118206084Y-113015176D01*
X118157538Y-112997806D01*
X118110928Y-112975761D01*
X118066703Y-112949254D01*
X118025290Y-112918540D01*
X117987086Y-112883914D01*
X117952460Y-112845710D01*
X117921746Y-112804297D01*
X117895239Y-112760072D01*
X117873194Y-112713462D01*
X117855824Y-112664916D01*
X117843295Y-112614900D01*
X117835730Y-112563898D01*
X117833200Y-112512400D01*
X117833200Y-111461600D01*
X117835730Y-111410102D01*
X117843295Y-111359100D01*
X117855824Y-111309084D01*
X117873194Y-111260538D01*
X117895239Y-111213928D01*
X117921746Y-111169703D01*
X117952460Y-111128290D01*
X117987086Y-111090086D01*
X118025290Y-111055460D01*
X118066703Y-111024746D01*
X118110928Y-110998239D01*
X118157538Y-110976194D01*
X118206084Y-110958824D01*
X118256100Y-110946295D01*
X118307102Y-110938730D01*
X118358600Y-110936200D01*
X122409400Y-110936200D01*
X122460898Y-110938730D01*
X122460898Y-110938730D01*
G37*
D12*
X120384000Y-111987000D03*
D11*
G36*
X138716898Y-102838730D02*
X138767900Y-102846295D01*
X138817916Y-102858824D01*
X138866462Y-102876194D01*
X138913072Y-102898239D01*
X138957297Y-102924746D01*
X138998710Y-102955460D01*
X139036914Y-102990086D01*
X139071540Y-103028290D01*
X139102254Y-103069703D01*
X139128761Y-103113928D01*
X139150806Y-103160538D01*
X139168176Y-103209084D01*
X139180705Y-103259100D01*
X139188270Y-103310102D01*
X139190800Y-103361600D01*
X139190800Y-104412400D01*
X139188270Y-104463898D01*
X139180705Y-104514900D01*
X139168176Y-104564916D01*
X139150806Y-104613462D01*
X139128761Y-104660072D01*
X139102254Y-104704297D01*
X139071540Y-104745710D01*
X139036914Y-104783914D01*
X138998710Y-104818540D01*
X138957297Y-104849254D01*
X138913072Y-104875761D01*
X138866462Y-104897806D01*
X138817916Y-104915176D01*
X138767900Y-104927705D01*
X138716898Y-104935270D01*
X138665400Y-104937800D01*
X134614600Y-104937800D01*
X134563102Y-104935270D01*
X134512100Y-104927705D01*
X134462084Y-104915176D01*
X134413538Y-104897806D01*
X134366928Y-104875761D01*
X134322703Y-104849254D01*
X134281290Y-104818540D01*
X134243086Y-104783914D01*
X134208460Y-104745710D01*
X134177746Y-104704297D01*
X134151239Y-104660072D01*
X134129194Y-104613462D01*
X134111824Y-104564916D01*
X134099295Y-104514900D01*
X134091730Y-104463898D01*
X134089200Y-104412400D01*
X134089200Y-103361600D01*
X134091730Y-103310102D01*
X134099295Y-103259100D01*
X134111824Y-103209084D01*
X134129194Y-103160538D01*
X134151239Y-103113928D01*
X134177746Y-103069703D01*
X134208460Y-103028290D01*
X134243086Y-102990086D01*
X134281290Y-102955460D01*
X134322703Y-102924746D01*
X134366928Y-102898239D01*
X134413538Y-102876194D01*
X134462084Y-102858824D01*
X134512100Y-102846295D01*
X134563102Y-102838730D01*
X134614600Y-102836200D01*
X138665400Y-102836200D01*
X138716898Y-102838730D01*
X138716898Y-102838730D01*
G37*
D12*
X136640000Y-103887000D03*
D11*
G36*
X132416898Y-103638730D02*
X132467900Y-103646295D01*
X132517916Y-103658824D01*
X132566462Y-103676194D01*
X132613072Y-103698239D01*
X132657297Y-103724746D01*
X132698710Y-103755460D01*
X132736914Y-103790086D01*
X132771540Y-103828290D01*
X132802254Y-103869703D01*
X132828761Y-103913928D01*
X132850806Y-103960538D01*
X132868176Y-104009084D01*
X132880705Y-104059100D01*
X132888270Y-104110102D01*
X132890800Y-104161600D01*
X132890800Y-108212400D01*
X132888270Y-108263898D01*
X132880705Y-108314900D01*
X132868176Y-108364916D01*
X132850806Y-108413462D01*
X132828761Y-108460072D01*
X132802254Y-108504297D01*
X132771540Y-108545710D01*
X132736914Y-108583914D01*
X132698710Y-108618540D01*
X132657297Y-108649254D01*
X132613072Y-108675761D01*
X132566462Y-108697806D01*
X132517916Y-108715176D01*
X132467900Y-108727705D01*
X132416898Y-108735270D01*
X132365400Y-108737800D01*
X131314600Y-108737800D01*
X131263102Y-108735270D01*
X131212100Y-108727705D01*
X131162084Y-108715176D01*
X131113538Y-108697806D01*
X131066928Y-108675761D01*
X131022703Y-108649254D01*
X130981290Y-108618540D01*
X130943086Y-108583914D01*
X130908460Y-108545710D01*
X130877746Y-108504297D01*
X130851239Y-108460072D01*
X130829194Y-108413462D01*
X130811824Y-108364916D01*
X130799295Y-108314900D01*
X130791730Y-108263898D01*
X130789200Y-108212400D01*
X130789200Y-104161600D01*
X130791730Y-104110102D01*
X130799295Y-104059100D01*
X130811824Y-104009084D01*
X130829194Y-103960538D01*
X130851239Y-103913928D01*
X130877746Y-103869703D01*
X130908460Y-103828290D01*
X130943086Y-103790086D01*
X130981290Y-103755460D01*
X131022703Y-103724746D01*
X131066928Y-103698239D01*
X131113538Y-103676194D01*
X131162084Y-103658824D01*
X131212100Y-103646295D01*
X131263102Y-103638730D01*
X131314600Y-103636200D01*
X132365400Y-103636200D01*
X132416898Y-103638730D01*
X132416898Y-103638730D01*
G37*
D12*
X131840000Y-106187000D03*
D11*
G36*
X138716898Y-110938730D02*
X138767900Y-110946295D01*
X138817916Y-110958824D01*
X138866462Y-110976194D01*
X138913072Y-110998239D01*
X138957297Y-111024746D01*
X138998710Y-111055460D01*
X139036914Y-111090086D01*
X139071540Y-111128290D01*
X139102254Y-111169703D01*
X139128761Y-111213928D01*
X139150806Y-111260538D01*
X139168176Y-111309084D01*
X139180705Y-111359100D01*
X139188270Y-111410102D01*
X139190800Y-111461600D01*
X139190800Y-112512400D01*
X139188270Y-112563898D01*
X139180705Y-112614900D01*
X139168176Y-112664916D01*
X139150806Y-112713462D01*
X139128761Y-112760072D01*
X139102254Y-112804297D01*
X139071540Y-112845710D01*
X139036914Y-112883914D01*
X138998710Y-112918540D01*
X138957297Y-112949254D01*
X138913072Y-112975761D01*
X138866462Y-112997806D01*
X138817916Y-113015176D01*
X138767900Y-113027705D01*
X138716898Y-113035270D01*
X138665400Y-113037800D01*
X134614600Y-113037800D01*
X134563102Y-113035270D01*
X134512100Y-113027705D01*
X134462084Y-113015176D01*
X134413538Y-112997806D01*
X134366928Y-112975761D01*
X134322703Y-112949254D01*
X134281290Y-112918540D01*
X134243086Y-112883914D01*
X134208460Y-112845710D01*
X134177746Y-112804297D01*
X134151239Y-112760072D01*
X134129194Y-112713462D01*
X134111824Y-112664916D01*
X134099295Y-112614900D01*
X134091730Y-112563898D01*
X134089200Y-112512400D01*
X134089200Y-111461600D01*
X134091730Y-111410102D01*
X134099295Y-111359100D01*
X134111824Y-111309084D01*
X134129194Y-111260538D01*
X134151239Y-111213928D01*
X134177746Y-111169703D01*
X134208460Y-111128290D01*
X134243086Y-111090086D01*
X134281290Y-111055460D01*
X134322703Y-111024746D01*
X134366928Y-110998239D01*
X134413538Y-110976194D01*
X134462084Y-110958824D01*
X134512100Y-110946295D01*
X134563102Y-110938730D01*
X134614600Y-110936200D01*
X138665400Y-110936200D01*
X138716898Y-110938730D01*
X138716898Y-110938730D01*
G37*
D12*
X136640000Y-111987000D03*
D11*
G36*
X170974898Y-102851730D02*
X171025900Y-102859295D01*
X171075916Y-102871824D01*
X171124462Y-102889194D01*
X171171072Y-102911239D01*
X171215297Y-102937746D01*
X171256710Y-102968460D01*
X171294914Y-103003086D01*
X171329540Y-103041290D01*
X171360254Y-103082703D01*
X171386761Y-103126928D01*
X171408806Y-103173538D01*
X171426176Y-103222084D01*
X171438705Y-103272100D01*
X171446270Y-103323102D01*
X171448800Y-103374600D01*
X171448800Y-104425400D01*
X171446270Y-104476898D01*
X171438705Y-104527900D01*
X171426176Y-104577916D01*
X171408806Y-104626462D01*
X171386761Y-104673072D01*
X171360254Y-104717297D01*
X171329540Y-104758710D01*
X171294914Y-104796914D01*
X171256710Y-104831540D01*
X171215297Y-104862254D01*
X171171072Y-104888761D01*
X171124462Y-104910806D01*
X171075916Y-104928176D01*
X171025900Y-104940705D01*
X170974898Y-104948270D01*
X170923400Y-104950800D01*
X166872600Y-104950800D01*
X166821102Y-104948270D01*
X166770100Y-104940705D01*
X166720084Y-104928176D01*
X166671538Y-104910806D01*
X166624928Y-104888761D01*
X166580703Y-104862254D01*
X166539290Y-104831540D01*
X166501086Y-104796914D01*
X166466460Y-104758710D01*
X166435746Y-104717297D01*
X166409239Y-104673072D01*
X166387194Y-104626462D01*
X166369824Y-104577916D01*
X166357295Y-104527900D01*
X166349730Y-104476898D01*
X166347200Y-104425400D01*
X166347200Y-103374600D01*
X166349730Y-103323102D01*
X166357295Y-103272100D01*
X166369824Y-103222084D01*
X166387194Y-103173538D01*
X166409239Y-103126928D01*
X166435746Y-103082703D01*
X166466460Y-103041290D01*
X166501086Y-103003086D01*
X166539290Y-102968460D01*
X166580703Y-102937746D01*
X166624928Y-102911239D01*
X166671538Y-102889194D01*
X166720084Y-102871824D01*
X166770100Y-102859295D01*
X166821102Y-102851730D01*
X166872600Y-102849200D01*
X170923400Y-102849200D01*
X170974898Y-102851730D01*
X170974898Y-102851730D01*
G37*
D12*
X168898000Y-103900000D03*
D11*
G36*
X164674898Y-103651730D02*
X164725900Y-103659295D01*
X164775916Y-103671824D01*
X164824462Y-103689194D01*
X164871072Y-103711239D01*
X164915297Y-103737746D01*
X164956710Y-103768460D01*
X164994914Y-103803086D01*
X165029540Y-103841290D01*
X165060254Y-103882703D01*
X165086761Y-103926928D01*
X165108806Y-103973538D01*
X165126176Y-104022084D01*
X165138705Y-104072100D01*
X165146270Y-104123102D01*
X165148800Y-104174600D01*
X165148800Y-108225400D01*
X165146270Y-108276898D01*
X165138705Y-108327900D01*
X165126176Y-108377916D01*
X165108806Y-108426462D01*
X165086761Y-108473072D01*
X165060254Y-108517297D01*
X165029540Y-108558710D01*
X164994914Y-108596914D01*
X164956710Y-108631540D01*
X164915297Y-108662254D01*
X164871072Y-108688761D01*
X164824462Y-108710806D01*
X164775916Y-108728176D01*
X164725900Y-108740705D01*
X164674898Y-108748270D01*
X164623400Y-108750800D01*
X163572600Y-108750800D01*
X163521102Y-108748270D01*
X163470100Y-108740705D01*
X163420084Y-108728176D01*
X163371538Y-108710806D01*
X163324928Y-108688761D01*
X163280703Y-108662254D01*
X163239290Y-108631540D01*
X163201086Y-108596914D01*
X163166460Y-108558710D01*
X163135746Y-108517297D01*
X163109239Y-108473072D01*
X163087194Y-108426462D01*
X163069824Y-108377916D01*
X163057295Y-108327900D01*
X163049730Y-108276898D01*
X163047200Y-108225400D01*
X163047200Y-104174600D01*
X163049730Y-104123102D01*
X163057295Y-104072100D01*
X163069824Y-104022084D01*
X163087194Y-103973538D01*
X163109239Y-103926928D01*
X163135746Y-103882703D01*
X163166460Y-103841290D01*
X163201086Y-103803086D01*
X163239290Y-103768460D01*
X163280703Y-103737746D01*
X163324928Y-103711239D01*
X163371538Y-103689194D01*
X163420084Y-103671824D01*
X163470100Y-103659295D01*
X163521102Y-103651730D01*
X163572600Y-103649200D01*
X164623400Y-103649200D01*
X164674898Y-103651730D01*
X164674898Y-103651730D01*
G37*
D12*
X164098000Y-106200000D03*
D11*
G36*
X170974898Y-110951730D02*
X171025900Y-110959295D01*
X171075916Y-110971824D01*
X171124462Y-110989194D01*
X171171072Y-111011239D01*
X171215297Y-111037746D01*
X171256710Y-111068460D01*
X171294914Y-111103086D01*
X171329540Y-111141290D01*
X171360254Y-111182703D01*
X171386761Y-111226928D01*
X171408806Y-111273538D01*
X171426176Y-111322084D01*
X171438705Y-111372100D01*
X171446270Y-111423102D01*
X171448800Y-111474600D01*
X171448800Y-112525400D01*
X171446270Y-112576898D01*
X171438705Y-112627900D01*
X171426176Y-112677916D01*
X171408806Y-112726462D01*
X171386761Y-112773072D01*
X171360254Y-112817297D01*
X171329540Y-112858710D01*
X171294914Y-112896914D01*
X171256710Y-112931540D01*
X171215297Y-112962254D01*
X171171072Y-112988761D01*
X171124462Y-113010806D01*
X171075916Y-113028176D01*
X171025900Y-113040705D01*
X170974898Y-113048270D01*
X170923400Y-113050800D01*
X166872600Y-113050800D01*
X166821102Y-113048270D01*
X166770100Y-113040705D01*
X166720084Y-113028176D01*
X166671538Y-113010806D01*
X166624928Y-112988761D01*
X166580703Y-112962254D01*
X166539290Y-112931540D01*
X166501086Y-112896914D01*
X166466460Y-112858710D01*
X166435746Y-112817297D01*
X166409239Y-112773072D01*
X166387194Y-112726462D01*
X166369824Y-112677916D01*
X166357295Y-112627900D01*
X166349730Y-112576898D01*
X166347200Y-112525400D01*
X166347200Y-111474600D01*
X166349730Y-111423102D01*
X166357295Y-111372100D01*
X166369824Y-111322084D01*
X166387194Y-111273538D01*
X166409239Y-111226928D01*
X166435746Y-111182703D01*
X166466460Y-111141290D01*
X166501086Y-111103086D01*
X166539290Y-111068460D01*
X166580703Y-111037746D01*
X166624928Y-111011239D01*
X166671538Y-110989194D01*
X166720084Y-110971824D01*
X166770100Y-110959295D01*
X166821102Y-110951730D01*
X166872600Y-110949200D01*
X170923400Y-110949200D01*
X170974898Y-110951730D01*
X170974898Y-110951730D01*
G37*
D12*
X168898000Y-112000000D03*
D11*
G36*
X170974898Y-118101730D02*
X171025900Y-118109295D01*
X171075916Y-118121824D01*
X171124462Y-118139194D01*
X171171072Y-118161239D01*
X171215297Y-118187746D01*
X171256710Y-118218460D01*
X171294914Y-118253086D01*
X171329540Y-118291290D01*
X171360254Y-118332703D01*
X171386761Y-118376928D01*
X171408806Y-118423538D01*
X171426176Y-118472084D01*
X171438705Y-118522100D01*
X171446270Y-118573102D01*
X171448800Y-118624600D01*
X171448800Y-119675400D01*
X171446270Y-119726898D01*
X171438705Y-119777900D01*
X171426176Y-119827916D01*
X171408806Y-119876462D01*
X171386761Y-119923072D01*
X171360254Y-119967297D01*
X171329540Y-120008710D01*
X171294914Y-120046914D01*
X171256710Y-120081540D01*
X171215297Y-120112254D01*
X171171072Y-120138761D01*
X171124462Y-120160806D01*
X171075916Y-120178176D01*
X171025900Y-120190705D01*
X170974898Y-120198270D01*
X170923400Y-120200800D01*
X166872600Y-120200800D01*
X166821102Y-120198270D01*
X166770100Y-120190705D01*
X166720084Y-120178176D01*
X166671538Y-120160806D01*
X166624928Y-120138761D01*
X166580703Y-120112254D01*
X166539290Y-120081540D01*
X166501086Y-120046914D01*
X166466460Y-120008710D01*
X166435746Y-119967297D01*
X166409239Y-119923072D01*
X166387194Y-119876462D01*
X166369824Y-119827916D01*
X166357295Y-119777900D01*
X166349730Y-119726898D01*
X166347200Y-119675400D01*
X166347200Y-118624600D01*
X166349730Y-118573102D01*
X166357295Y-118522100D01*
X166369824Y-118472084D01*
X166387194Y-118423538D01*
X166409239Y-118376928D01*
X166435746Y-118332703D01*
X166466460Y-118291290D01*
X166501086Y-118253086D01*
X166539290Y-118218460D01*
X166580703Y-118187746D01*
X166624928Y-118161239D01*
X166671538Y-118139194D01*
X166720084Y-118121824D01*
X166770100Y-118109295D01*
X166821102Y-118101730D01*
X166872600Y-118099200D01*
X170923400Y-118099200D01*
X170974898Y-118101730D01*
X170974898Y-118101730D01*
G37*
D12*
X168898000Y-119150000D03*
D11*
G36*
X164674898Y-118901730D02*
X164725900Y-118909295D01*
X164775916Y-118921824D01*
X164824462Y-118939194D01*
X164871072Y-118961239D01*
X164915297Y-118987746D01*
X164956710Y-119018460D01*
X164994914Y-119053086D01*
X165029540Y-119091290D01*
X165060254Y-119132703D01*
X165086761Y-119176928D01*
X165108806Y-119223538D01*
X165126176Y-119272084D01*
X165138705Y-119322100D01*
X165146270Y-119373102D01*
X165148800Y-119424600D01*
X165148800Y-123475400D01*
X165146270Y-123526898D01*
X165138705Y-123577900D01*
X165126176Y-123627916D01*
X165108806Y-123676462D01*
X165086761Y-123723072D01*
X165060254Y-123767297D01*
X165029540Y-123808710D01*
X164994914Y-123846914D01*
X164956710Y-123881540D01*
X164915297Y-123912254D01*
X164871072Y-123938761D01*
X164824462Y-123960806D01*
X164775916Y-123978176D01*
X164725900Y-123990705D01*
X164674898Y-123998270D01*
X164623400Y-124000800D01*
X163572600Y-124000800D01*
X163521102Y-123998270D01*
X163470100Y-123990705D01*
X163420084Y-123978176D01*
X163371538Y-123960806D01*
X163324928Y-123938761D01*
X163280703Y-123912254D01*
X163239290Y-123881540D01*
X163201086Y-123846914D01*
X163166460Y-123808710D01*
X163135746Y-123767297D01*
X163109239Y-123723072D01*
X163087194Y-123676462D01*
X163069824Y-123627916D01*
X163057295Y-123577900D01*
X163049730Y-123526898D01*
X163047200Y-123475400D01*
X163047200Y-119424600D01*
X163049730Y-119373102D01*
X163057295Y-119322100D01*
X163069824Y-119272084D01*
X163087194Y-119223538D01*
X163109239Y-119176928D01*
X163135746Y-119132703D01*
X163166460Y-119091290D01*
X163201086Y-119053086D01*
X163239290Y-119018460D01*
X163280703Y-118987746D01*
X163324928Y-118961239D01*
X163371538Y-118939194D01*
X163420084Y-118921824D01*
X163470100Y-118909295D01*
X163521102Y-118901730D01*
X163572600Y-118899200D01*
X164623400Y-118899200D01*
X164674898Y-118901730D01*
X164674898Y-118901730D01*
G37*
D12*
X164098000Y-121450000D03*
D11*
G36*
X170974898Y-126201730D02*
X171025900Y-126209295D01*
X171075916Y-126221824D01*
X171124462Y-126239194D01*
X171171072Y-126261239D01*
X171215297Y-126287746D01*
X171256710Y-126318460D01*
X171294914Y-126353086D01*
X171329540Y-126391290D01*
X171360254Y-126432703D01*
X171386761Y-126476928D01*
X171408806Y-126523538D01*
X171426176Y-126572084D01*
X171438705Y-126622100D01*
X171446270Y-126673102D01*
X171448800Y-126724600D01*
X171448800Y-127775400D01*
X171446270Y-127826898D01*
X171438705Y-127877900D01*
X171426176Y-127927916D01*
X171408806Y-127976462D01*
X171386761Y-128023072D01*
X171360254Y-128067297D01*
X171329540Y-128108710D01*
X171294914Y-128146914D01*
X171256710Y-128181540D01*
X171215297Y-128212254D01*
X171171072Y-128238761D01*
X171124462Y-128260806D01*
X171075916Y-128278176D01*
X171025900Y-128290705D01*
X170974898Y-128298270D01*
X170923400Y-128300800D01*
X166872600Y-128300800D01*
X166821102Y-128298270D01*
X166770100Y-128290705D01*
X166720084Y-128278176D01*
X166671538Y-128260806D01*
X166624928Y-128238761D01*
X166580703Y-128212254D01*
X166539290Y-128181540D01*
X166501086Y-128146914D01*
X166466460Y-128108710D01*
X166435746Y-128067297D01*
X166409239Y-128023072D01*
X166387194Y-127976462D01*
X166369824Y-127927916D01*
X166357295Y-127877900D01*
X166349730Y-127826898D01*
X166347200Y-127775400D01*
X166347200Y-126724600D01*
X166349730Y-126673102D01*
X166357295Y-126622100D01*
X166369824Y-126572084D01*
X166387194Y-126523538D01*
X166409239Y-126476928D01*
X166435746Y-126432703D01*
X166466460Y-126391290D01*
X166501086Y-126353086D01*
X166539290Y-126318460D01*
X166580703Y-126287746D01*
X166624928Y-126261239D01*
X166671538Y-126239194D01*
X166720084Y-126221824D01*
X166770100Y-126209295D01*
X166821102Y-126201730D01*
X166872600Y-126199200D01*
X170923400Y-126199200D01*
X170974898Y-126201730D01*
X170974898Y-126201730D01*
G37*
D12*
X168898000Y-127250000D03*
D11*
G36*
X170974898Y-133401730D02*
X171025900Y-133409295D01*
X171075916Y-133421824D01*
X171124462Y-133439194D01*
X171171072Y-133461239D01*
X171215297Y-133487746D01*
X171256710Y-133518460D01*
X171294914Y-133553086D01*
X171329540Y-133591290D01*
X171360254Y-133632703D01*
X171386761Y-133676928D01*
X171408806Y-133723538D01*
X171426176Y-133772084D01*
X171438705Y-133822100D01*
X171446270Y-133873102D01*
X171448800Y-133924600D01*
X171448800Y-134975400D01*
X171446270Y-135026898D01*
X171438705Y-135077900D01*
X171426176Y-135127916D01*
X171408806Y-135176462D01*
X171386761Y-135223072D01*
X171360254Y-135267297D01*
X171329540Y-135308710D01*
X171294914Y-135346914D01*
X171256710Y-135381540D01*
X171215297Y-135412254D01*
X171171072Y-135438761D01*
X171124462Y-135460806D01*
X171075916Y-135478176D01*
X171025900Y-135490705D01*
X170974898Y-135498270D01*
X170923400Y-135500800D01*
X166872600Y-135500800D01*
X166821102Y-135498270D01*
X166770100Y-135490705D01*
X166720084Y-135478176D01*
X166671538Y-135460806D01*
X166624928Y-135438761D01*
X166580703Y-135412254D01*
X166539290Y-135381540D01*
X166501086Y-135346914D01*
X166466460Y-135308710D01*
X166435746Y-135267297D01*
X166409239Y-135223072D01*
X166387194Y-135176462D01*
X166369824Y-135127916D01*
X166357295Y-135077900D01*
X166349730Y-135026898D01*
X166347200Y-134975400D01*
X166347200Y-133924600D01*
X166349730Y-133873102D01*
X166357295Y-133822100D01*
X166369824Y-133772084D01*
X166387194Y-133723538D01*
X166409239Y-133676928D01*
X166435746Y-133632703D01*
X166466460Y-133591290D01*
X166501086Y-133553086D01*
X166539290Y-133518460D01*
X166580703Y-133487746D01*
X166624928Y-133461239D01*
X166671538Y-133439194D01*
X166720084Y-133421824D01*
X166770100Y-133409295D01*
X166821102Y-133401730D01*
X166872600Y-133399200D01*
X170923400Y-133399200D01*
X170974898Y-133401730D01*
X170974898Y-133401730D01*
G37*
D12*
X168898000Y-134450000D03*
D11*
G36*
X164674898Y-134201730D02*
X164725900Y-134209295D01*
X164775916Y-134221824D01*
X164824462Y-134239194D01*
X164871072Y-134261239D01*
X164915297Y-134287746D01*
X164956710Y-134318460D01*
X164994914Y-134353086D01*
X165029540Y-134391290D01*
X165060254Y-134432703D01*
X165086761Y-134476928D01*
X165108806Y-134523538D01*
X165126176Y-134572084D01*
X165138705Y-134622100D01*
X165146270Y-134673102D01*
X165148800Y-134724600D01*
X165148800Y-138775400D01*
X165146270Y-138826898D01*
X165138705Y-138877900D01*
X165126176Y-138927916D01*
X165108806Y-138976462D01*
X165086761Y-139023072D01*
X165060254Y-139067297D01*
X165029540Y-139108710D01*
X164994914Y-139146914D01*
X164956710Y-139181540D01*
X164915297Y-139212254D01*
X164871072Y-139238761D01*
X164824462Y-139260806D01*
X164775916Y-139278176D01*
X164725900Y-139290705D01*
X164674898Y-139298270D01*
X164623400Y-139300800D01*
X163572600Y-139300800D01*
X163521102Y-139298270D01*
X163470100Y-139290705D01*
X163420084Y-139278176D01*
X163371538Y-139260806D01*
X163324928Y-139238761D01*
X163280703Y-139212254D01*
X163239290Y-139181540D01*
X163201086Y-139146914D01*
X163166460Y-139108710D01*
X163135746Y-139067297D01*
X163109239Y-139023072D01*
X163087194Y-138976462D01*
X163069824Y-138927916D01*
X163057295Y-138877900D01*
X163049730Y-138826898D01*
X163047200Y-138775400D01*
X163047200Y-134724600D01*
X163049730Y-134673102D01*
X163057295Y-134622100D01*
X163069824Y-134572084D01*
X163087194Y-134523538D01*
X163109239Y-134476928D01*
X163135746Y-134432703D01*
X163166460Y-134391290D01*
X163201086Y-134353086D01*
X163239290Y-134318460D01*
X163280703Y-134287746D01*
X163324928Y-134261239D01*
X163371538Y-134239194D01*
X163420084Y-134221824D01*
X163470100Y-134209295D01*
X163521102Y-134201730D01*
X163572600Y-134199200D01*
X164623400Y-134199200D01*
X164674898Y-134201730D01*
X164674898Y-134201730D01*
G37*
D12*
X164098000Y-136750000D03*
D11*
G36*
X170974898Y-141501730D02*
X171025900Y-141509295D01*
X171075916Y-141521824D01*
X171124462Y-141539194D01*
X171171072Y-141561239D01*
X171215297Y-141587746D01*
X171256710Y-141618460D01*
X171294914Y-141653086D01*
X171329540Y-141691290D01*
X171360254Y-141732703D01*
X171386761Y-141776928D01*
X171408806Y-141823538D01*
X171426176Y-141872084D01*
X171438705Y-141922100D01*
X171446270Y-141973102D01*
X171448800Y-142024600D01*
X171448800Y-143075400D01*
X171446270Y-143126898D01*
X171438705Y-143177900D01*
X171426176Y-143227916D01*
X171408806Y-143276462D01*
X171386761Y-143323072D01*
X171360254Y-143367297D01*
X171329540Y-143408710D01*
X171294914Y-143446914D01*
X171256710Y-143481540D01*
X171215297Y-143512254D01*
X171171072Y-143538761D01*
X171124462Y-143560806D01*
X171075916Y-143578176D01*
X171025900Y-143590705D01*
X170974898Y-143598270D01*
X170923400Y-143600800D01*
X166872600Y-143600800D01*
X166821102Y-143598270D01*
X166770100Y-143590705D01*
X166720084Y-143578176D01*
X166671538Y-143560806D01*
X166624928Y-143538761D01*
X166580703Y-143512254D01*
X166539290Y-143481540D01*
X166501086Y-143446914D01*
X166466460Y-143408710D01*
X166435746Y-143367297D01*
X166409239Y-143323072D01*
X166387194Y-143276462D01*
X166369824Y-143227916D01*
X166357295Y-143177900D01*
X166349730Y-143126898D01*
X166347200Y-143075400D01*
X166347200Y-142024600D01*
X166349730Y-141973102D01*
X166357295Y-141922100D01*
X166369824Y-141872084D01*
X166387194Y-141823538D01*
X166409239Y-141776928D01*
X166435746Y-141732703D01*
X166466460Y-141691290D01*
X166501086Y-141653086D01*
X166539290Y-141618460D01*
X166580703Y-141587746D01*
X166624928Y-141561239D01*
X166671538Y-141539194D01*
X166720084Y-141521824D01*
X166770100Y-141509295D01*
X166821102Y-141501730D01*
X166872600Y-141499200D01*
X170923400Y-141499200D01*
X170974898Y-141501730D01*
X170974898Y-141501730D01*
G37*
D12*
X168898000Y-142550000D03*
D11*
G36*
X154845898Y-102851730D02*
X154896900Y-102859295D01*
X154946916Y-102871824D01*
X154995462Y-102889194D01*
X155042072Y-102911239D01*
X155086297Y-102937746D01*
X155127710Y-102968460D01*
X155165914Y-103003086D01*
X155200540Y-103041290D01*
X155231254Y-103082703D01*
X155257761Y-103126928D01*
X155279806Y-103173538D01*
X155297176Y-103222084D01*
X155309705Y-103272100D01*
X155317270Y-103323102D01*
X155319800Y-103374600D01*
X155319800Y-104425400D01*
X155317270Y-104476898D01*
X155309705Y-104527900D01*
X155297176Y-104577916D01*
X155279806Y-104626462D01*
X155257761Y-104673072D01*
X155231254Y-104717297D01*
X155200540Y-104758710D01*
X155165914Y-104796914D01*
X155127710Y-104831540D01*
X155086297Y-104862254D01*
X155042072Y-104888761D01*
X154995462Y-104910806D01*
X154946916Y-104928176D01*
X154896900Y-104940705D01*
X154845898Y-104948270D01*
X154794400Y-104950800D01*
X150743600Y-104950800D01*
X150692102Y-104948270D01*
X150641100Y-104940705D01*
X150591084Y-104928176D01*
X150542538Y-104910806D01*
X150495928Y-104888761D01*
X150451703Y-104862254D01*
X150410290Y-104831540D01*
X150372086Y-104796914D01*
X150337460Y-104758710D01*
X150306746Y-104717297D01*
X150280239Y-104673072D01*
X150258194Y-104626462D01*
X150240824Y-104577916D01*
X150228295Y-104527900D01*
X150220730Y-104476898D01*
X150218200Y-104425400D01*
X150218200Y-103374600D01*
X150220730Y-103323102D01*
X150228295Y-103272100D01*
X150240824Y-103222084D01*
X150258194Y-103173538D01*
X150280239Y-103126928D01*
X150306746Y-103082703D01*
X150337460Y-103041290D01*
X150372086Y-103003086D01*
X150410290Y-102968460D01*
X150451703Y-102937746D01*
X150495928Y-102911239D01*
X150542538Y-102889194D01*
X150591084Y-102871824D01*
X150641100Y-102859295D01*
X150692102Y-102851730D01*
X150743600Y-102849200D01*
X154794400Y-102849200D01*
X154845898Y-102851730D01*
X154845898Y-102851730D01*
G37*
D12*
X152769000Y-103900000D03*
D11*
G36*
X148545898Y-103651730D02*
X148596900Y-103659295D01*
X148646916Y-103671824D01*
X148695462Y-103689194D01*
X148742072Y-103711239D01*
X148786297Y-103737746D01*
X148827710Y-103768460D01*
X148865914Y-103803086D01*
X148900540Y-103841290D01*
X148931254Y-103882703D01*
X148957761Y-103926928D01*
X148979806Y-103973538D01*
X148997176Y-104022084D01*
X149009705Y-104072100D01*
X149017270Y-104123102D01*
X149019800Y-104174600D01*
X149019800Y-108225400D01*
X149017270Y-108276898D01*
X149009705Y-108327900D01*
X148997176Y-108377916D01*
X148979806Y-108426462D01*
X148957761Y-108473072D01*
X148931254Y-108517297D01*
X148900540Y-108558710D01*
X148865914Y-108596914D01*
X148827710Y-108631540D01*
X148786297Y-108662254D01*
X148742072Y-108688761D01*
X148695462Y-108710806D01*
X148646916Y-108728176D01*
X148596900Y-108740705D01*
X148545898Y-108748270D01*
X148494400Y-108750800D01*
X147443600Y-108750800D01*
X147392102Y-108748270D01*
X147341100Y-108740705D01*
X147291084Y-108728176D01*
X147242538Y-108710806D01*
X147195928Y-108688761D01*
X147151703Y-108662254D01*
X147110290Y-108631540D01*
X147072086Y-108596914D01*
X147037460Y-108558710D01*
X147006746Y-108517297D01*
X146980239Y-108473072D01*
X146958194Y-108426462D01*
X146940824Y-108377916D01*
X146928295Y-108327900D01*
X146920730Y-108276898D01*
X146918200Y-108225400D01*
X146918200Y-104174600D01*
X146920730Y-104123102D01*
X146928295Y-104072100D01*
X146940824Y-104022084D01*
X146958194Y-103973538D01*
X146980239Y-103926928D01*
X147006746Y-103882703D01*
X147037460Y-103841290D01*
X147072086Y-103803086D01*
X147110290Y-103768460D01*
X147151703Y-103737746D01*
X147195928Y-103711239D01*
X147242538Y-103689194D01*
X147291084Y-103671824D01*
X147341100Y-103659295D01*
X147392102Y-103651730D01*
X147443600Y-103649200D01*
X148494400Y-103649200D01*
X148545898Y-103651730D01*
X148545898Y-103651730D01*
G37*
D12*
X147969000Y-106200000D03*
D11*
G36*
X154845898Y-110951730D02*
X154896900Y-110959295D01*
X154946916Y-110971824D01*
X154995462Y-110989194D01*
X155042072Y-111011239D01*
X155086297Y-111037746D01*
X155127710Y-111068460D01*
X155165914Y-111103086D01*
X155200540Y-111141290D01*
X155231254Y-111182703D01*
X155257761Y-111226928D01*
X155279806Y-111273538D01*
X155297176Y-111322084D01*
X155309705Y-111372100D01*
X155317270Y-111423102D01*
X155319800Y-111474600D01*
X155319800Y-112525400D01*
X155317270Y-112576898D01*
X155309705Y-112627900D01*
X155297176Y-112677916D01*
X155279806Y-112726462D01*
X155257761Y-112773072D01*
X155231254Y-112817297D01*
X155200540Y-112858710D01*
X155165914Y-112896914D01*
X155127710Y-112931540D01*
X155086297Y-112962254D01*
X155042072Y-112988761D01*
X154995462Y-113010806D01*
X154946916Y-113028176D01*
X154896900Y-113040705D01*
X154845898Y-113048270D01*
X154794400Y-113050800D01*
X150743600Y-113050800D01*
X150692102Y-113048270D01*
X150641100Y-113040705D01*
X150591084Y-113028176D01*
X150542538Y-113010806D01*
X150495928Y-112988761D01*
X150451703Y-112962254D01*
X150410290Y-112931540D01*
X150372086Y-112896914D01*
X150337460Y-112858710D01*
X150306746Y-112817297D01*
X150280239Y-112773072D01*
X150258194Y-112726462D01*
X150240824Y-112677916D01*
X150228295Y-112627900D01*
X150220730Y-112576898D01*
X150218200Y-112525400D01*
X150218200Y-111474600D01*
X150220730Y-111423102D01*
X150228295Y-111372100D01*
X150240824Y-111322084D01*
X150258194Y-111273538D01*
X150280239Y-111226928D01*
X150306746Y-111182703D01*
X150337460Y-111141290D01*
X150372086Y-111103086D01*
X150410290Y-111068460D01*
X150451703Y-111037746D01*
X150495928Y-111011239D01*
X150542538Y-110989194D01*
X150591084Y-110971824D01*
X150641100Y-110959295D01*
X150692102Y-110951730D01*
X150743600Y-110949200D01*
X154794400Y-110949200D01*
X154845898Y-110951730D01*
X154845898Y-110951730D01*
G37*
D12*
X152769000Y-112000000D03*
D11*
G36*
X106204898Y-102851730D02*
X106255900Y-102859295D01*
X106305916Y-102871824D01*
X106354462Y-102889194D01*
X106401072Y-102911239D01*
X106445297Y-102937746D01*
X106486710Y-102968460D01*
X106524914Y-103003086D01*
X106559540Y-103041290D01*
X106590254Y-103082703D01*
X106616761Y-103126928D01*
X106638806Y-103173538D01*
X106656176Y-103222084D01*
X106668705Y-103272100D01*
X106676270Y-103323102D01*
X106678800Y-103374600D01*
X106678800Y-104425400D01*
X106676270Y-104476898D01*
X106668705Y-104527900D01*
X106656176Y-104577916D01*
X106638806Y-104626462D01*
X106616761Y-104673072D01*
X106590254Y-104717297D01*
X106559540Y-104758710D01*
X106524914Y-104796914D01*
X106486710Y-104831540D01*
X106445297Y-104862254D01*
X106401072Y-104888761D01*
X106354462Y-104910806D01*
X106305916Y-104928176D01*
X106255900Y-104940705D01*
X106204898Y-104948270D01*
X106153400Y-104950800D01*
X102102600Y-104950800D01*
X102051102Y-104948270D01*
X102000100Y-104940705D01*
X101950084Y-104928176D01*
X101901538Y-104910806D01*
X101854928Y-104888761D01*
X101810703Y-104862254D01*
X101769290Y-104831540D01*
X101731086Y-104796914D01*
X101696460Y-104758710D01*
X101665746Y-104717297D01*
X101639239Y-104673072D01*
X101617194Y-104626462D01*
X101599824Y-104577916D01*
X101587295Y-104527900D01*
X101579730Y-104476898D01*
X101577200Y-104425400D01*
X101577200Y-103374600D01*
X101579730Y-103323102D01*
X101587295Y-103272100D01*
X101599824Y-103222084D01*
X101617194Y-103173538D01*
X101639239Y-103126928D01*
X101665746Y-103082703D01*
X101696460Y-103041290D01*
X101731086Y-103003086D01*
X101769290Y-102968460D01*
X101810703Y-102937746D01*
X101854928Y-102911239D01*
X101901538Y-102889194D01*
X101950084Y-102871824D01*
X102000100Y-102859295D01*
X102051102Y-102851730D01*
X102102600Y-102849200D01*
X106153400Y-102849200D01*
X106204898Y-102851730D01*
X106204898Y-102851730D01*
G37*
D12*
X104128000Y-103900000D03*
D11*
G36*
X99904898Y-103651730D02*
X99955900Y-103659295D01*
X100005916Y-103671824D01*
X100054462Y-103689194D01*
X100101072Y-103711239D01*
X100145297Y-103737746D01*
X100186710Y-103768460D01*
X100224914Y-103803086D01*
X100259540Y-103841290D01*
X100290254Y-103882703D01*
X100316761Y-103926928D01*
X100338806Y-103973538D01*
X100356176Y-104022084D01*
X100368705Y-104072100D01*
X100376270Y-104123102D01*
X100378800Y-104174600D01*
X100378800Y-108225400D01*
X100376270Y-108276898D01*
X100368705Y-108327900D01*
X100356176Y-108377916D01*
X100338806Y-108426462D01*
X100316761Y-108473072D01*
X100290254Y-108517297D01*
X100259540Y-108558710D01*
X100224914Y-108596914D01*
X100186710Y-108631540D01*
X100145297Y-108662254D01*
X100101072Y-108688761D01*
X100054462Y-108710806D01*
X100005916Y-108728176D01*
X99955900Y-108740705D01*
X99904898Y-108748270D01*
X99853400Y-108750800D01*
X98802600Y-108750800D01*
X98751102Y-108748270D01*
X98700100Y-108740705D01*
X98650084Y-108728176D01*
X98601538Y-108710806D01*
X98554928Y-108688761D01*
X98510703Y-108662254D01*
X98469290Y-108631540D01*
X98431086Y-108596914D01*
X98396460Y-108558710D01*
X98365746Y-108517297D01*
X98339239Y-108473072D01*
X98317194Y-108426462D01*
X98299824Y-108377916D01*
X98287295Y-108327900D01*
X98279730Y-108276898D01*
X98277200Y-108225400D01*
X98277200Y-104174600D01*
X98279730Y-104123102D01*
X98287295Y-104072100D01*
X98299824Y-104022084D01*
X98317194Y-103973538D01*
X98339239Y-103926928D01*
X98365746Y-103882703D01*
X98396460Y-103841290D01*
X98431086Y-103803086D01*
X98469290Y-103768460D01*
X98510703Y-103737746D01*
X98554928Y-103711239D01*
X98601538Y-103689194D01*
X98650084Y-103671824D01*
X98700100Y-103659295D01*
X98751102Y-103651730D01*
X98802600Y-103649200D01*
X99853400Y-103649200D01*
X99904898Y-103651730D01*
X99904898Y-103651730D01*
G37*
D12*
X99328000Y-106200000D03*
D11*
G36*
X106204898Y-110951730D02*
X106255900Y-110959295D01*
X106305916Y-110971824D01*
X106354462Y-110989194D01*
X106401072Y-111011239D01*
X106445297Y-111037746D01*
X106486710Y-111068460D01*
X106524914Y-111103086D01*
X106559540Y-111141290D01*
X106590254Y-111182703D01*
X106616761Y-111226928D01*
X106638806Y-111273538D01*
X106656176Y-111322084D01*
X106668705Y-111372100D01*
X106676270Y-111423102D01*
X106678800Y-111474600D01*
X106678800Y-112525400D01*
X106676270Y-112576898D01*
X106668705Y-112627900D01*
X106656176Y-112677916D01*
X106638806Y-112726462D01*
X106616761Y-112773072D01*
X106590254Y-112817297D01*
X106559540Y-112858710D01*
X106524914Y-112896914D01*
X106486710Y-112931540D01*
X106445297Y-112962254D01*
X106401072Y-112988761D01*
X106354462Y-113010806D01*
X106305916Y-113028176D01*
X106255900Y-113040705D01*
X106204898Y-113048270D01*
X106153400Y-113050800D01*
X102102600Y-113050800D01*
X102051102Y-113048270D01*
X102000100Y-113040705D01*
X101950084Y-113028176D01*
X101901538Y-113010806D01*
X101854928Y-112988761D01*
X101810703Y-112962254D01*
X101769290Y-112931540D01*
X101731086Y-112896914D01*
X101696460Y-112858710D01*
X101665746Y-112817297D01*
X101639239Y-112773072D01*
X101617194Y-112726462D01*
X101599824Y-112677916D01*
X101587295Y-112627900D01*
X101579730Y-112576898D01*
X101577200Y-112525400D01*
X101577200Y-111474600D01*
X101579730Y-111423102D01*
X101587295Y-111372100D01*
X101599824Y-111322084D01*
X101617194Y-111273538D01*
X101639239Y-111226928D01*
X101665746Y-111182703D01*
X101696460Y-111141290D01*
X101731086Y-111103086D01*
X101769290Y-111068460D01*
X101810703Y-111037746D01*
X101854928Y-111011239D01*
X101901538Y-110989194D01*
X101950084Y-110971824D01*
X102000100Y-110959295D01*
X102051102Y-110951730D01*
X102102600Y-110949200D01*
X106153400Y-110949200D01*
X106204898Y-110951730D01*
X106204898Y-110951730D01*
G37*
D12*
X104128000Y-112000000D03*
D11*
G36*
X106204898Y-118101730D02*
X106255900Y-118109295D01*
X106305916Y-118121824D01*
X106354462Y-118139194D01*
X106401072Y-118161239D01*
X106445297Y-118187746D01*
X106486710Y-118218460D01*
X106524914Y-118253086D01*
X106559540Y-118291290D01*
X106590254Y-118332703D01*
X106616761Y-118376928D01*
X106638806Y-118423538D01*
X106656176Y-118472084D01*
X106668705Y-118522100D01*
X106676270Y-118573102D01*
X106678800Y-118624600D01*
X106678800Y-119675400D01*
X106676270Y-119726898D01*
X106668705Y-119777900D01*
X106656176Y-119827916D01*
X106638806Y-119876462D01*
X106616761Y-119923072D01*
X106590254Y-119967297D01*
X106559540Y-120008710D01*
X106524914Y-120046914D01*
X106486710Y-120081540D01*
X106445297Y-120112254D01*
X106401072Y-120138761D01*
X106354462Y-120160806D01*
X106305916Y-120178176D01*
X106255900Y-120190705D01*
X106204898Y-120198270D01*
X106153400Y-120200800D01*
X102102600Y-120200800D01*
X102051102Y-120198270D01*
X102000100Y-120190705D01*
X101950084Y-120178176D01*
X101901538Y-120160806D01*
X101854928Y-120138761D01*
X101810703Y-120112254D01*
X101769290Y-120081540D01*
X101731086Y-120046914D01*
X101696460Y-120008710D01*
X101665746Y-119967297D01*
X101639239Y-119923072D01*
X101617194Y-119876462D01*
X101599824Y-119827916D01*
X101587295Y-119777900D01*
X101579730Y-119726898D01*
X101577200Y-119675400D01*
X101577200Y-118624600D01*
X101579730Y-118573102D01*
X101587295Y-118522100D01*
X101599824Y-118472084D01*
X101617194Y-118423538D01*
X101639239Y-118376928D01*
X101665746Y-118332703D01*
X101696460Y-118291290D01*
X101731086Y-118253086D01*
X101769290Y-118218460D01*
X101810703Y-118187746D01*
X101854928Y-118161239D01*
X101901538Y-118139194D01*
X101950084Y-118121824D01*
X102000100Y-118109295D01*
X102051102Y-118101730D01*
X102102600Y-118099200D01*
X106153400Y-118099200D01*
X106204898Y-118101730D01*
X106204898Y-118101730D01*
G37*
D12*
X104128000Y-119150000D03*
D11*
G36*
X99904898Y-118901730D02*
X99955900Y-118909295D01*
X100005916Y-118921824D01*
X100054462Y-118939194D01*
X100101072Y-118961239D01*
X100145297Y-118987746D01*
X100186710Y-119018460D01*
X100224914Y-119053086D01*
X100259540Y-119091290D01*
X100290254Y-119132703D01*
X100316761Y-119176928D01*
X100338806Y-119223538D01*
X100356176Y-119272084D01*
X100368705Y-119322100D01*
X100376270Y-119373102D01*
X100378800Y-119424600D01*
X100378800Y-123475400D01*
X100376270Y-123526898D01*
X100368705Y-123577900D01*
X100356176Y-123627916D01*
X100338806Y-123676462D01*
X100316761Y-123723072D01*
X100290254Y-123767297D01*
X100259540Y-123808710D01*
X100224914Y-123846914D01*
X100186710Y-123881540D01*
X100145297Y-123912254D01*
X100101072Y-123938761D01*
X100054462Y-123960806D01*
X100005916Y-123978176D01*
X99955900Y-123990705D01*
X99904898Y-123998270D01*
X99853400Y-124000800D01*
X98802600Y-124000800D01*
X98751102Y-123998270D01*
X98700100Y-123990705D01*
X98650084Y-123978176D01*
X98601538Y-123960806D01*
X98554928Y-123938761D01*
X98510703Y-123912254D01*
X98469290Y-123881540D01*
X98431086Y-123846914D01*
X98396460Y-123808710D01*
X98365746Y-123767297D01*
X98339239Y-123723072D01*
X98317194Y-123676462D01*
X98299824Y-123627916D01*
X98287295Y-123577900D01*
X98279730Y-123526898D01*
X98277200Y-123475400D01*
X98277200Y-119424600D01*
X98279730Y-119373102D01*
X98287295Y-119322100D01*
X98299824Y-119272084D01*
X98317194Y-119223538D01*
X98339239Y-119176928D01*
X98365746Y-119132703D01*
X98396460Y-119091290D01*
X98431086Y-119053086D01*
X98469290Y-119018460D01*
X98510703Y-118987746D01*
X98554928Y-118961239D01*
X98601538Y-118939194D01*
X98650084Y-118921824D01*
X98700100Y-118909295D01*
X98751102Y-118901730D01*
X98802600Y-118899200D01*
X99853400Y-118899200D01*
X99904898Y-118901730D01*
X99904898Y-118901730D01*
G37*
D12*
X99328000Y-121450000D03*
D11*
G36*
X106204898Y-126201730D02*
X106255900Y-126209295D01*
X106305916Y-126221824D01*
X106354462Y-126239194D01*
X106401072Y-126261239D01*
X106445297Y-126287746D01*
X106486710Y-126318460D01*
X106524914Y-126353086D01*
X106559540Y-126391290D01*
X106590254Y-126432703D01*
X106616761Y-126476928D01*
X106638806Y-126523538D01*
X106656176Y-126572084D01*
X106668705Y-126622100D01*
X106676270Y-126673102D01*
X106678800Y-126724600D01*
X106678800Y-127775400D01*
X106676270Y-127826898D01*
X106668705Y-127877900D01*
X106656176Y-127927916D01*
X106638806Y-127976462D01*
X106616761Y-128023072D01*
X106590254Y-128067297D01*
X106559540Y-128108710D01*
X106524914Y-128146914D01*
X106486710Y-128181540D01*
X106445297Y-128212254D01*
X106401072Y-128238761D01*
X106354462Y-128260806D01*
X106305916Y-128278176D01*
X106255900Y-128290705D01*
X106204898Y-128298270D01*
X106153400Y-128300800D01*
X102102600Y-128300800D01*
X102051102Y-128298270D01*
X102000100Y-128290705D01*
X101950084Y-128278176D01*
X101901538Y-128260806D01*
X101854928Y-128238761D01*
X101810703Y-128212254D01*
X101769290Y-128181540D01*
X101731086Y-128146914D01*
X101696460Y-128108710D01*
X101665746Y-128067297D01*
X101639239Y-128023072D01*
X101617194Y-127976462D01*
X101599824Y-127927916D01*
X101587295Y-127877900D01*
X101579730Y-127826898D01*
X101577200Y-127775400D01*
X101577200Y-126724600D01*
X101579730Y-126673102D01*
X101587295Y-126622100D01*
X101599824Y-126572084D01*
X101617194Y-126523538D01*
X101639239Y-126476928D01*
X101665746Y-126432703D01*
X101696460Y-126391290D01*
X101731086Y-126353086D01*
X101769290Y-126318460D01*
X101810703Y-126287746D01*
X101854928Y-126261239D01*
X101901538Y-126239194D01*
X101950084Y-126221824D01*
X102000100Y-126209295D01*
X102051102Y-126201730D01*
X102102600Y-126199200D01*
X106153400Y-126199200D01*
X106204898Y-126201730D01*
X106204898Y-126201730D01*
G37*
D12*
X104128000Y-127250000D03*
D11*
G36*
X106204898Y-133453730D02*
X106255900Y-133461295D01*
X106305916Y-133473824D01*
X106354462Y-133491194D01*
X106401072Y-133513239D01*
X106445297Y-133539746D01*
X106486710Y-133570460D01*
X106524914Y-133605086D01*
X106559540Y-133643290D01*
X106590254Y-133684703D01*
X106616761Y-133728928D01*
X106638806Y-133775538D01*
X106656176Y-133824084D01*
X106668705Y-133874100D01*
X106676270Y-133925102D01*
X106678800Y-133976600D01*
X106678800Y-135027400D01*
X106676270Y-135078898D01*
X106668705Y-135129900D01*
X106656176Y-135179916D01*
X106638806Y-135228462D01*
X106616761Y-135275072D01*
X106590254Y-135319297D01*
X106559540Y-135360710D01*
X106524914Y-135398914D01*
X106486710Y-135433540D01*
X106445297Y-135464254D01*
X106401072Y-135490761D01*
X106354462Y-135512806D01*
X106305916Y-135530176D01*
X106255900Y-135542705D01*
X106204898Y-135550270D01*
X106153400Y-135552800D01*
X102102600Y-135552800D01*
X102051102Y-135550270D01*
X102000100Y-135542705D01*
X101950084Y-135530176D01*
X101901538Y-135512806D01*
X101854928Y-135490761D01*
X101810703Y-135464254D01*
X101769290Y-135433540D01*
X101731086Y-135398914D01*
X101696460Y-135360710D01*
X101665746Y-135319297D01*
X101639239Y-135275072D01*
X101617194Y-135228462D01*
X101599824Y-135179916D01*
X101587295Y-135129900D01*
X101579730Y-135078898D01*
X101577200Y-135027400D01*
X101577200Y-133976600D01*
X101579730Y-133925102D01*
X101587295Y-133874100D01*
X101599824Y-133824084D01*
X101617194Y-133775538D01*
X101639239Y-133728928D01*
X101665746Y-133684703D01*
X101696460Y-133643290D01*
X101731086Y-133605086D01*
X101769290Y-133570460D01*
X101810703Y-133539746D01*
X101854928Y-133513239D01*
X101901538Y-133491194D01*
X101950084Y-133473824D01*
X102000100Y-133461295D01*
X102051102Y-133453730D01*
X102102600Y-133451200D01*
X106153400Y-133451200D01*
X106204898Y-133453730D01*
X106204898Y-133453730D01*
G37*
D12*
X104128000Y-134502000D03*
D11*
G36*
X99904898Y-134253730D02*
X99955900Y-134261295D01*
X100005916Y-134273824D01*
X100054462Y-134291194D01*
X100101072Y-134313239D01*
X100145297Y-134339746D01*
X100186710Y-134370460D01*
X100224914Y-134405086D01*
X100259540Y-134443290D01*
X100290254Y-134484703D01*
X100316761Y-134528928D01*
X100338806Y-134575538D01*
X100356176Y-134624084D01*
X100368705Y-134674100D01*
X100376270Y-134725102D01*
X100378800Y-134776600D01*
X100378800Y-138827400D01*
X100376270Y-138878898D01*
X100368705Y-138929900D01*
X100356176Y-138979916D01*
X100338806Y-139028462D01*
X100316761Y-139075072D01*
X100290254Y-139119297D01*
X100259540Y-139160710D01*
X100224914Y-139198914D01*
X100186710Y-139233540D01*
X100145297Y-139264254D01*
X100101072Y-139290761D01*
X100054462Y-139312806D01*
X100005916Y-139330176D01*
X99955900Y-139342705D01*
X99904898Y-139350270D01*
X99853400Y-139352800D01*
X98802600Y-139352800D01*
X98751102Y-139350270D01*
X98700100Y-139342705D01*
X98650084Y-139330176D01*
X98601538Y-139312806D01*
X98554928Y-139290761D01*
X98510703Y-139264254D01*
X98469290Y-139233540D01*
X98431086Y-139198914D01*
X98396460Y-139160710D01*
X98365746Y-139119297D01*
X98339239Y-139075072D01*
X98317194Y-139028462D01*
X98299824Y-138979916D01*
X98287295Y-138929900D01*
X98279730Y-138878898D01*
X98277200Y-138827400D01*
X98277200Y-134776600D01*
X98279730Y-134725102D01*
X98287295Y-134674100D01*
X98299824Y-134624084D01*
X98317194Y-134575538D01*
X98339239Y-134528928D01*
X98365746Y-134484703D01*
X98396460Y-134443290D01*
X98431086Y-134405086D01*
X98469290Y-134370460D01*
X98510703Y-134339746D01*
X98554928Y-134313239D01*
X98601538Y-134291194D01*
X98650084Y-134273824D01*
X98700100Y-134261295D01*
X98751102Y-134253730D01*
X98802600Y-134251200D01*
X99853400Y-134251200D01*
X99904898Y-134253730D01*
X99904898Y-134253730D01*
G37*
D12*
X99328000Y-136802000D03*
D11*
G36*
X106204898Y-141553730D02*
X106255900Y-141561295D01*
X106305916Y-141573824D01*
X106354462Y-141591194D01*
X106401072Y-141613239D01*
X106445297Y-141639746D01*
X106486710Y-141670460D01*
X106524914Y-141705086D01*
X106559540Y-141743290D01*
X106590254Y-141784703D01*
X106616761Y-141828928D01*
X106638806Y-141875538D01*
X106656176Y-141924084D01*
X106668705Y-141974100D01*
X106676270Y-142025102D01*
X106678800Y-142076600D01*
X106678800Y-143127400D01*
X106676270Y-143178898D01*
X106668705Y-143229900D01*
X106656176Y-143279916D01*
X106638806Y-143328462D01*
X106616761Y-143375072D01*
X106590254Y-143419297D01*
X106559540Y-143460710D01*
X106524914Y-143498914D01*
X106486710Y-143533540D01*
X106445297Y-143564254D01*
X106401072Y-143590761D01*
X106354462Y-143612806D01*
X106305916Y-143630176D01*
X106255900Y-143642705D01*
X106204898Y-143650270D01*
X106153400Y-143652800D01*
X102102600Y-143652800D01*
X102051102Y-143650270D01*
X102000100Y-143642705D01*
X101950084Y-143630176D01*
X101901538Y-143612806D01*
X101854928Y-143590761D01*
X101810703Y-143564254D01*
X101769290Y-143533540D01*
X101731086Y-143498914D01*
X101696460Y-143460710D01*
X101665746Y-143419297D01*
X101639239Y-143375072D01*
X101617194Y-143328462D01*
X101599824Y-143279916D01*
X101587295Y-143229900D01*
X101579730Y-143178898D01*
X101577200Y-143127400D01*
X101577200Y-142076600D01*
X101579730Y-142025102D01*
X101587295Y-141974100D01*
X101599824Y-141924084D01*
X101617194Y-141875538D01*
X101639239Y-141828928D01*
X101665746Y-141784703D01*
X101696460Y-141743290D01*
X101731086Y-141705086D01*
X101769290Y-141670460D01*
X101810703Y-141639746D01*
X101854928Y-141613239D01*
X101901538Y-141591194D01*
X101950084Y-141573824D01*
X102000100Y-141561295D01*
X102051102Y-141553730D01*
X102102600Y-141551200D01*
X106153400Y-141551200D01*
X106204898Y-141553730D01*
X106204898Y-141553730D01*
G37*
D12*
X104128000Y-142602000D03*
D13*
X166501000Y-97808000D03*
D14*
X169041000Y-97808000D03*
D13*
X101731000Y-97808000D03*
D14*
X104271000Y-97808000D03*
D13*
X134370000Y-144290000D03*
D14*
X136910000Y-144290000D03*
D12*
X128013000Y-81734000D03*
X128013000Y-84234000D03*
X128013000Y-86734000D03*
X142513000Y-81734000D03*
X142513000Y-86734000D03*
D15*
X135513000Y-78534000D03*
X135513000Y-89934000D03*
D16*
X119130000Y-140226000D03*
D17*
X116590000Y-140226000D03*
X119130000Y-137686000D03*
X116590000Y-137686000D03*
X119130000Y-135146000D03*
X116590000Y-135146000D03*
X119130000Y-132606000D03*
X116590000Y-132606000D03*
X119130000Y-130066000D03*
X116590000Y-130066000D03*
X119130000Y-127526000D03*
X116590000Y-127526000D03*
X119130000Y-124986000D03*
X116590000Y-124986000D03*
X119130000Y-122446000D03*
X116590000Y-122446000D03*
D18*
X150626000Y-53358000D03*
X148086000Y-53358000D03*
X145546000Y-53358000D03*
X143006000Y-53358000D03*
X140466000Y-53358000D03*
X137926000Y-53358000D03*
X135386000Y-53358000D03*
X132846000Y-53358000D03*
X130306000Y-53358000D03*
X127766000Y-53358000D03*
X125226000Y-53358000D03*
X122686000Y-53358000D03*
X120146000Y-53358000D03*
X117606000Y-53358000D03*
X117606000Y-55898000D03*
X117606000Y-58438000D03*
X117606000Y-61078000D03*
X117606000Y-63518000D03*
X117606000Y-66058000D03*
X117606000Y-68598000D03*
X120146000Y-68598000D03*
X122686000Y-68598000D03*
X125226000Y-68598000D03*
X127766000Y-68598000D03*
X130306000Y-68598000D03*
X132846000Y-68598000D03*
X135386000Y-68598000D03*
X137926000Y-68598000D03*
X140466000Y-68598000D03*
X143006000Y-68598000D03*
X145546000Y-68598000D03*
X148086000Y-68598000D03*
X150626000Y-68598000D03*
D19*
X156976000Y-44700000D03*
X156976000Y-47900000D03*
D20*
X102112000Y-63137000D03*
D21*
X102112000Y-61137000D03*
X102112000Y-59137000D03*
X102112000Y-57137000D03*
D22*
X121162000Y-83457000D03*
X121162000Y-85997000D03*
D23*
X121162000Y-88537000D03*
D24*
X150118000Y-47516000D03*
X121162000Y-47516000D03*
X150118000Y-76980000D03*
X121162000Y-76980000D03*
D12*
X134370000Y-47516000D03*
X131830000Y-47516000D03*
X126750000Y-47516000D03*
X129290000Y-47516000D03*
X141990000Y-47516000D03*
X139450000Y-47516000D03*
X136910000Y-47516000D03*
X144530000Y-47516000D03*
D25*
X102500000Y-155500000D03*
X168500000Y-155500000D03*
X168500000Y-33000000D03*
X102500000Y-33000000D03*
M02*
